<?xml version="1.0" encoding="UTF-8"?>
<svg id="Layer_2" data-name="Layer 2" xmlns="http://www.w3.org/2000/svg" viewBox="0 0 119.57 119.57">
  <defs>
    <style>
      .cls-1 {
        fill: #fff;
      }

      .cls-2 {
        fill: #ff0025;
      }
    </style>
  </defs>
  <g id="Layer_1-2" data-name="Layer 1">
    <g>
      <path class="cls-2" d="M109.37,4.42L4.42,109.37c-2.79-3.93-4.42-8.73-4.42-13.91V24.11C0,10.79,10.79,0,24.11,0h71.35c5.18,0,9.98,1.63,13.91,4.42Z"/>
      <path class="cls-2" d="M119.57,24.11v71.35c0,13.32-10.79,24.11-24.11,24.11H24.11c-5.24,0-10.1-1.67-14.05-4.53L115.05,10.06c2.85,3.95,4.52,8.81,4.52,14.05Z"/>
      <path class="cls-1" d="M59.79,23.14c10.16,0,18.81,3.57,25.93,10.72,7.12,7.15,10.68,15.8,10.68,25.96s-3.56,18.68-10.68,25.85c-7.12,7.17-15.76,10.75-25.93,10.75s-18.68-3.58-25.85-10.75c-7.17-7.17-10.75-15.79-10.75-25.85s3.58-18.82,10.75-25.96c7.17-7.14,15.79-10.72,25.85-10.72ZM38.39,38.39c-5.91,5.94-8.87,13.08-8.87,21.44s2.96,15.47,8.87,21.36c5.91,5.89,13.04,8.83,21.4,8.83s15.48-2.94,21.4-8.83c5.91-5.89,8.87-13.01,8.87-21.36s-2.96-15.5-8.87-21.44c-5.91-5.94-13.05-8.91-21.4-8.91s-15.49,2.97-21.4,8.91Z"/>
      <circle class="cls-1" cx="59.79" cy="59.79" r="20.18"/>
      <path class="cls-1" d="M115.05,10.06L10.06,115.04c-2.19-1.55-4.1-3.48-5.64-5.67L109.37,4.42c2.19,1.54,4.12,3.45,5.68,5.64Z"/>
    </g>
  </g>
</svg>